# xmcd
#
# Track frame offsets: 
#        182
#        12017
#        26020
#        38407
#        52030
#        63512
#        80460
#        92637
#        109602
#        120112
#        138175
#        150200
#        160690
#        174400
#
# Disc length: 2575 seconds
#
# Revision: 17
# Processed by: cddbd v1.5.2PL0 Copyright (c) Steve Scherf et al.
# Submitted via: ExactAudioCopy v1.0b3
#
DISCID=930a0d0e
DTITLE=Johnny Cash - The Best Of Johnny Cash 
DYEAR=1996
DGENRE=Country
TTITLE0=Ring Of Fire
TTITLE1=Orange Blossom Special
TTITLE2=Jackson (With June Carter)
TTITLE3=Don't Take Your Guns To Town
TTITLE4=I Walk The Line
TTITLE5=A Boy Named Sue (Live)
TTITLE6=Folsom Prison Blues (Live)
TTITLE7=(Ghost) Riders In The Sky
TTITLE8=Daddy Sang Bass
TTITLE9=One Piece At A Time
TTITLE10=I'm So Lonesome I Could Cry
TTITLE11=Hey Porter
TTITLE12=It Ain't Me Babe
TTITLE13=The Ballad Of Ira Hayes
EXTD=YEAR: 2007\nPUBLISHER: LC10879\nEANCODE: 0886970896726\n
EXTT0=
EXTT1=
EXTT2=
EXTT3=
EXTT4=
EXTT5=
EXTT6=
EXTT7=
EXTT8=
EXTT9=
EXTT10=
EXTT11=
EXTT12=
EXTT13=
PLAYORDER=
